<?xml version="1.0" encoding="iso-8859-1"?>
<!-- Generator: Adobe Illustrator 19.0.0, SVG Export Plug-In . SVG Version: 6.00 Build 0)  -->
<svg version="1.1" id="Layer_1" xmlns="http://www.w3.org/2000/svg" xmlns:xlink="http://www.w3.org/1999/xlink" x="0px" y="0px"
	 viewBox="0 0 512 512" style="enable-background:new 0 0 512 512;" xml:space="preserve">
<polygon style="fill:#FF634C;" points="107.514,304.555 82.195,272.228 10.579,272.228 10.579,347.367 107.514,347.367 "/>
<polyline style="fill:#DEDDE1;" points="94.616,244.579 85.718,272.228 10.579,272.228 10.579,27.494 55.394,27.494 67.055,40.721 
	62.703,67.174 72.947,95.839 60.615,120.776 77.322,145.958 71.423,170.818 85.718,194.914 78.018,218.583 94.616,244.579 "/>
<rect x="429.709" y="347.561" style="fill:#E59752;" width="25.061" height="148.255"/>
<rect x="395.741" y="291.154" style="fill:#103358;" width="92.996" height="56.408"/>
<g>
	<path style="fill:#FEBBA0;" d="M349.807,193.626v-30.426c0-51.801-41.994-93.794-93.794-93.794
		c-51.802,0-93.794,41.993-93.794,93.794h-0.368v30.426c-12.918,0-23.39,10.472-23.39,23.39c0,12.918,10.472,23.39,23.39,23.39
		v17.462c1.126,14.726,8.307,27.837,19.181,35.018l56.542,32.324c11.354,7.498,25.159,7.498,36.513,0l56.373-32.324
		c10.873-7.181,18.222-20.292,19.349-35.018v-17.462c12.918,0,23.39-10.472,23.39-23.39
		C373.197,204.099,362.724,193.626,349.807,193.626z"/>
	<path style="fill:#FEBBA0;" d="M213.742,313.514v20.341c0,6.796-4.086,12.925-10.36,15.54l-67.203,28.001
		c-14.198,5.916-23.445,21.995-23.445,37.376v81.046h286.189v-81.046c0-15.38-9.248-31.461-23.445-37.376l-67.203-28.001
		c-6.274-2.614-10.359-8.744-10.359-15.54v-20.341H213.742z"/>
</g>
<path style="fill:#ECEBED;" d="M375.477,377.396l-67.203-28.001c-5.197-2.165-8.884-6.746-9.999-12.117
	c-8.879,14.056-24.542,23.399-42.396,23.399c-17.906,0-33.61-9.398-42.474-23.522c-1.084,5.424-4.787,10.058-10.023,12.24
	l-67.203,28.001c-14.198,5.916-23.445,21.995-23.445,37.376v81.046h286.189v-81.046C398.923,399.391,389.674,383.31,375.477,377.396
	z"/>
<polygon style="fill:#103358;" points="315.399,352.364 315.399,425.096 196.361,425.096 196.361,352.321 156.159,369.072 
	156.159,495.818 355.601,495.818 355.601,369.113 "/>
<path style="fill:#F7D04A;" d="M373.156,138.069h-6.567c-1.774-27.788-13.682-53.647-33.782-73.148
	c-14.833-14.392-33.001-24.212-52.704-28.747V20.448c0-2.356-1.698-4.266-3.793-4.266h-40.963c-2.095,0-3.793,1.91-3.793,4.266
	v15.279c-20.482,4.315-39.388,14.31-54.728,29.193c-20.099,19.503-32.008,45.361-33.782,73.148h-4.544
	c-2.096,0-3.793,1.698-3.793,3.793v21.24c0,2.096,1.698,3.793,3.793,3.793h234.654c2.095,0,3.793-1.698,3.793-3.793v-21.24
	C376.949,139.767,375.251,138.069,373.156,138.069z"/>
<path d="M256.017,435.538h-0.137c-5.766,0-10.442-4.675-10.442-10.442s4.676-10.442,10.442-10.442h0.137
	c5.766,0,10.442,4.675,10.442,10.442S261.783,435.538,256.017,435.538z"/>
<path d="M255.88,435.538h-0.137c-5.766,0-10.442-4.675-10.442-10.442s4.676-10.442,10.442-10.442h0.137
	c5.766,0,10.442,4.675,10.442,10.442S261.646,435.538,255.88,435.538z"/>
<path d="M10.579,506.26h-0.137C4.676,506.26,0,501.585,0,495.818s4.676-10.442,10.442-10.442h0.137
	c5.766,0,10.442,4.675,10.442,10.442S16.345,506.26,10.579,506.26z"/>
<path d="M501.216,506.259h-0.137c-5.766,0-10.442-4.675-10.442-10.442s4.676-10.442,10.442-10.442h0.137
	c5.766,0,10.442,4.675,10.442,10.442S506.982,506.259,501.216,506.259z"/>
<path d="M293.911,229.918c-6.435,0-11.672-5.236-11.672-11.671c0-6.436,5.237-11.672,11.672-11.672
	c6.435,0,11.671,5.236,11.671,11.672C305.581,224.682,300.346,229.918,293.911,229.918z"/>
<path d="M217.747,229.918c-6.435,0-11.671-5.236-11.671-11.671c0-6.436,5.236-11.672,11.671-11.672s11.672,5.236,11.672,11.672
	C229.419,224.682,224.182,229.918,217.747,229.918z"/>
<path d="M255.873,286.86c-11.384,0-20.646-9.262-20.646-20.646c0-5.767,4.676-10.442,10.442-10.442h20.408
	c5.766,0,10.442,4.675,10.442,10.442C276.517,277.599,267.256,286.86,255.873,286.86z"/>
<path d="M78.652,439.878l-24.366-24.365l8.122-8.123c4.078-4.078,4.078-10.689,0-14.767c-4.079-4.078-10.688-4.078-14.768,0
	l-31.011,31.012c-4.078,4.078-4.078,10.689,0,14.767c2.039,2.039,4.711,3.058,7.384,3.058s5.344-1.02,7.384-3.058l8.121-8.122
	l24.366,24.365c2.039,2.039,4.711,3.058,7.384,3.058s5.344-1.02,7.384-3.058C82.731,450.567,82.731,443.955,78.652,439.878z"/>
<path d="M508.942,128.027l-31.011-31.012c-4.077-4.078-10.686-4.078-14.768,0c-4.078,4.078-4.078,10.689,0,14.767l8.122,8.123
	l-24.366,24.365c-4.078,4.078-4.078,10.689,0,14.767c2.039,2.039,4.711,3.058,7.384,3.058c2.672,0,5.344-1.02,7.384-3.058
	l24.366-24.365l8.121,8.122c2.039,2.039,4.711,3.058,7.384,3.058c2.672,0,5.344-1.02,7.384-3.058
	C513.02,138.716,513.02,132.104,508.942,128.027z"/>
<path d="M488.736,280.713h-92.999c-5.766,0-10.442,4.675-10.442,10.442v56.404c0,5.767,4.676,10.442,10.442,10.442h23.528v127.375
	h-9.899v-70.604c0-20.355-12.284-39.687-29.87-47.015l-67.203-28c-2.389-0.995-3.934-3.311-3.934-5.901v-16.259l27.295-15.65
	c0.19-0.11,0.377-0.224,0.56-0.346c13.667-9.025,22.64-25.075,24.005-42.935c0.021-0.264,0.03-0.53,0.03-0.796v-8.669
	c13.56-4.411,23.389-17.171,23.389-32.183c0-15.012-9.83-27.774-23.39-32.184v-7.496h12.907c7.849,0,14.235-6.385,14.235-14.235
	v-21.24c0-6.864-4.884-12.609-11.358-13.943c-3.81-26.743-16.373-51.493-35.954-70.493c-14.032-13.615-31.022-23.632-49.535-29.267
	v-7.711c0-8.11-6.385-14.708-14.236-14.708h-40.963c-7.85,0-14.236,6.598-14.236,14.708v7.114
	c-19.303,5.507-36.99,15.729-51.556,29.864c-19.731,19.144-32.335,44.123-36.041,71.102c-5.397,2.025-9.248,7.237-9.248,13.334
	v21.24c0,7.849,6.385,14.235,14.235,14.235h12.909v7.496c-13.56,4.411-23.389,17.171-23.389,32.183
	c0,15.012,9.829,27.773,23.389,32.183v8.669c0,0.265,0.01,0.531,0.03,0.796c1.371,17.933,10.282,33.983,23.837,42.935
	c0.187,0.124,0.377,0.241,0.572,0.352l27.451,15.693v16.21c0,2.589-1.544,4.905-3.934,5.901l-67.203,28.001
	c-17.587,7.328-29.87,26.662-29.87,47.014v70.604H44.361c-5.766,0-10.442,4.675-10.442,10.442s4.676,10.442,10.442,10.442h422.937
	c5.766,0,10.442-4.675,10.442-10.442s-4.676-10.442-10.442-10.442h-2.088V358.001h23.527c5.766,0,10.442-4.675,10.442-10.442
	v-56.404C499.178,285.388,494.502,280.713,488.736,280.713z M145.151,148.298c4.525-0.927,8.01-4.786,8.315-9.564
	c1.607-25.158,12.485-48.711,30.634-66.32c13.795-13.385,30.948-22.538,49.607-26.469c4.832-1.018,8.289-5.281,8.289-10.217v-9.103
	h27.665v9.549c0,4.865,3.359,9.085,8.1,10.176c17.935,4.128,34.455,13.141,47.775,26.065c18.147,17.608,29.026,41.161,30.633,66.32
	c0.349,5.47,4.866,9.734,10.338,9.776v7.942H145.151V148.298z M186.529,284.002c-7.979-5.403-13.276-15.283-14.237-26.554v-17.042
	c0-5.767-4.676-10.442-10.442-10.442c-7.139,0-12.947-5.809-12.947-12.947c0-7.138,5.809-12.947,12.947-12.947
	c5.766,0,10.442-4.675,10.442-10.442v-16.291h167.072v16.291c0,5.767,4.676,10.442,10.442,10.442
	c7.139,0,12.947,5.809,12.947,12.947c0,7.138-5.808,12.947-12.947,12.947c-5.766,0-10.442,4.675-10.442,10.442v17.04
	c-0.948,11.042-6.439,21.162-14.411,26.559l-56.062,32.147c-0.19,0.11-0.377,0.224-0.56,0.346c-7.829,5.17-17.174,5.17-25.003,0
	c-0.187-0.123-0.377-0.241-0.572-0.352L186.529,284.002z M287.497,334.489c-7.49,9.91-19.068,15.746-31.617,15.746
	c-12.611,0-24.229-5.882-31.715-15.871c0.003-0.17,0.019-0.337,0.019-0.509v-4.272l7.935,4.536c7.33,4.76,15.52,7.14,23.712,7.14
	c8.194,0,16.387-2.382,23.718-7.144l7.927-4.545v4.285C287.474,334.068,287.493,334.277,287.497,334.489z M145.717,485.376h-22.54
	v-70.604c0-11.769,7.317-23.694,17.019-27.737l5.521-2.3V485.376z M345.159,485.376H166.601V376.032l19.318-8.049v57.112
	c0,5.767,4.676,10.442,10.442,10.442h25.602c5.766,0,10.442-4.675,10.442-10.442s-4.676-10.442-10.442-10.442h-15.16v-55.372
	l0.596-0.249c2.602-1.085,4.966-2.541,7.048-4.284c11.077,10.432,25.755,16.37,41.432,16.37c15.643,0,30.306-5.923,41.381-16.324
	c2.071,1.725,4.418,3.164,6.999,4.239l0.698,0.29v55.329h-15.16c-5.766,0-10.442,4.675-10.442,10.442s4.676,10.442,10.442,10.442
	h25.602c5.766,0,10.442-4.675,10.442-10.442v-57.07l19.318,8.049v109.3H345.159z M388.481,485.376h-22.438V384.776l5.419,2.259
	c9.702,4.042,17.018,15.967,17.018,27.737V485.376z M444.325,485.376h-4.177V358.001h4.177V485.376z M478.294,337.117h-72.116
	v-35.521h72.116V337.117z"/>
<path d="M115.735,298.116L96.33,273.34l8.226-25.562c0.953-2.962,0.536-6.195-1.139-8.818l-13.944-21.838l6.174-18.976
	c0.929-2.857,0.584-5.975-0.949-8.558L82.556,169.12l4.924-20.753c0.668-2.812,0.14-5.775-1.458-8.183l-13.382-20.17l9.667-19.546
	c1.255-2.538,1.425-5.477,0.473-8.143l-9.335-26.122l3.914-23.788c0.509-3.093-0.399-6.251-2.471-8.601L63.226,20.589
	c-1.982-2.248-4.836-3.537-7.833-3.537H10.579c-5.766,0-10.442,4.675-10.442,10.442v319.873c0,5.767,4.676,10.442,10.442,10.442
	h96.935c5.766,0,10.442-4.675,10.442-10.442v-42.812C117.956,302.221,117.174,299.954,115.735,298.116z M21.021,37.936h29.658
	l5.268,5.976L52.4,65.479c-0.287,1.748-0.125,3.541,0.47,5.21l8.754,24.494l-10.369,20.965c-1.65,3.337-1.399,7.3,0.659,10.402
	l14.203,21.406l-4.852,20.452c-0.625,2.635-0.203,5.409,1.179,7.739l11.885,20.033l-6.239,19.175
	c-0.966,2.971-0.551,6.217,1.129,8.85l13.954,21.855l-5.062,15.729H21.021V37.936z M97.072,336.925H21.021V282.67H77.11
	l19.962,25.488V336.925z"/>
<path d="M62.181,323.379H38.164c-5.766,0-10.442-4.675-10.442-10.442s4.676-10.442,10.442-10.442h24.017
	c5.766,0,10.442,4.675,10.442,10.442S67.947,323.379,62.181,323.379z"/>
<path d="M184.306,134.914c-0.241,0-0.485-0.008-0.729-0.025c-5.754-0.397-10.095-5.383-9.699-11.136
	c1.148-16.607,8.857-32.106,21.712-43.642c9.633-8.644,21.588-14.551,34.576-17.081c5.654-1.107,11.142,2.592,12.246,8.252
	c1.104,5.661-2.592,11.144-8.252,12.246c-9.284,1.809-17.797,6.002-24.619,12.125c-8.791,7.89-14.057,18.38-14.827,29.538
	C194.333,130.7,189.747,134.914,184.306,134.914z"/>
<g>
</g>
<g>
</g>
<g>
</g>
<g>
</g>
<g>
</g>
<g>
</g>
<g>
</g>
<g>
</g>
<g>
</g>
<g>
</g>
<g>
</g>
<g>
</g>
<g>
</g>
<g>
</g>
<g>
</g>
</svg>
